<?xml version="1.0" standalone="no"?>
<svg xmlns="http://www.w3.org/2000/svg" version="1.1" viewBox="0 0 100 100">
  <polygon points="100 0, 100 66.6, 66.6 66.6, 66.6 33.3, 33.3 33.3, 33.3 0" fill="#aa3939" shape-rendering="crispEdges" />
  <polygon points="33.3 0, 100 0, 33.3 33.3" fill="#801515" shape-rendering="crispEdges" />
  <polygon points="66.6 66.6, 100 0, 100 66.6" fill="#d46a6a" shape-rendering="crispEdges" />
  <polygon points="33.3 0, 33.3 33.3, 43.3 0" fill="#550000" shape-rendering="crispEdges" />
  <polygon points="66.6 66.6, 100 66.6, 100 56.6" fill="#ffaaaa" shape-rendering="crispEdges" />

  <polygon points="0 100, 66.6 100, 66.6 66.6, 33.3 66.6, 33.3 33.3, 0 33.3" fill="#aa3939" shape-rendering="crispEdges" />
  <polygon points="0 33.3, 0 100, 33.3 33.3" fill="#801515" shape-rendering="crispEdges" />
  <polygon points="66.6 66.6, 0 100, 66.6 100" fill="#d46a6a" shape-rendering="crispEdges" />
  <polygon points="0 33.3, 33.3 33.3, 0 43.3" fill="#550000" shape-rendering="crispEdges" />
  <polygon points="66.6 66.6, 66.6 100, 56.6 100" fill="#ffaaaa" shape-rendering="crispEdges" />
</svg>
